<?xml version="1.0" encoding="UTF-8"?>
<svg width="445px" height="115px" viewBox="0 0 445 115" version="1.1" xmlns="http://www.w3.org/2000/svg" xmlns:xlink="http://www.w3.org/1999/xlink">
    <!-- Generator: Sketch 43.2 (39069) - http://www.bohemiancoding.com/sketch -->
    <title>CASL</title>
    <desc>Created with Sketch.</desc>
    <defs></defs>
    <g id="Page-1" stroke="none" stroke-width="1" fill="none" fill-rule="evenodd">
        <g id="CASL" fill="#2F90CC">
            <polygon id="Path" points="187.232537 32 181.116782 25 126.578223 25 120 29.4961163 120 86.0254992 126.022563 92 201.133358 92 232.966738 35.137755 264.063898 92 340.828859 92 346.208394 86.8653963 346.744251 59.3980828 340.828859 53.8356577 288.945121 53.8356577 288.945121 32 358.915187 32 358.915187 92 432.172616 92 432.326384 85 369.112772 85 369.112772 25 284.25987 25 279.581608 29.4961163 278.862861 56.1130485 285.897727 61.2467883 337.160571 61.9725246 337.074368 85 270.140047 85 237.417843 25 229.317088 25 195.619859 85 130.01819 85 130.01819 32"></polygon>
            <g id="Group" transform="translate(14.000000, 10.000000)">
                <circle id="Oval" cx="43.5" cy="47.5" r="6.5"></circle>
                <circle id="Oval" cx="34" cy="16" r="5"></circle>
                <circle id="Oval" cx="21" cy="70" r="5"></circle>
                <circle id="Oval" cx="75" cy="56" r="5"></circle>
                <path d="M58.9224146,55.25574 C58.9224146,55.25574 87.317028,32.4060995 82.5846474,28.2002055 C74.1528849,20.7064931 56.7780645,29.1010189 39.8738752,36.8770214 C21.5900047,45.2876835 12.3189418,57.2945198 10.8551153,63.6608415 C10.0746537,67.0551439 20.5620672,69.1682097 20.5620672,69.1682097 L15.8360444,72.614001 C15.8360444,72.614001 -0.771514619,72.614001 0.458123189,66.2582751 C1.18023313,62.5258484 5.16217411,50.2263146 35.4072921,34.5660183 C57.9720572,22.8824497 82.3971244,17.4537926 86.4472965,24.5854297 C91.9376637,34.2529956 58.9224146,55.25574 58.9224146,55.25574 Z" id="Path-2"></path>
                <path d="M75.7571898,60.9113316 L74.1477951,54.8239309 L78.8416085,58.9125671 C78.8416085,58.9125671 86.8269287,70.2016632 83.5333861,72.9166426 C72.928788,81.6583739 39.0057806,62.9487785 25.8359234,53.2929191 C18.022045,47.5639496 -3.12017911,27.6909334 3.93502335,21.2882573 C14.2754608,11.9041932 41.8611584,29.2782252 41.8611584,29.2782252 C41.8611584,29.2782252 13.101753,16.385253 7.91168402,23.9324083 C2.72161506,31.4795636 31.7064986,52.2556178 34.5781637,54.0660597 C37.4498288,55.8765015 69.9164238,74.9696444 75.3581495,66.6587336 C77.0667953,64.0491932 75.7571898,60.9113316 75.7571898,60.9113316 Z" id="Path-3"></path>
                <path d="M43.6871266,0 C55.0048057,0 58.225631,39.93457 58.3264091,49.2677361 C58.4271871,58.6009022 56.089442,94.9242592 43.3323675,95.1273422 C30.5752931,95.3304253 29,58.8991645 29,58.8991645 C29,58.8991645 32.6101951,90.3592177 42.4854248,90.3592177 C52.3606546,90.3592177 54.3059761,59.3419771 54.1232523,49.3654603 C53.9405285,39.3889435 51.3941016,10.4712453 42.4854248,10.5262152 C35.6788267,10.5682144 37.5310136,13.5658437 37.5310136,13.5658437 L32.1755262,17.3338226 L32.1755262,12.6206678 C32.1755262,12.6206678 37.775833,2.34800197e-15 43.6871266,0 Z" id="Path-4"></path>
            </g>
        </g>
    </g>
</svg>